<?xml version="1.0" ?><!DOCTYPE svg  PUBLIC '-//W3C//DTD SVG 1.1 Basic//EN'  'http://www.w3.org/Graphics/SVG/1.1/DTD/svg11-basic.dtd'><svg baseProfile="basic" version="1.1" viewBox="0 0 380 380" xml:space="preserve" xmlns="http://www.w3.org/2000/svg" xmlns:xlink="http://www.w3.org/1999/xlink"><g id="Background"/><g id="Objects"><g><g><g><g><g><path d="M73.9,186.3c-0.3,0-0.6-0.1-0.8-0.2c-0.5-0.3-0.9-0.9-0.8-1.5l4.2-76.2c0-0.7,0.6-1.4,1.3-1.5        c0.7-0.2,1.5,0.2,1.8,0.9l27.3,55.2c0.4,0.7,0.1,1.6-0.6,2.1L74.8,186C74.6,186.2,74.2,186.3,73.9,186.3z M79.4,114.7        l-3.7,66.9l27.7-18.5L79.4,114.7z" fill="#99897A"/></g></g><g><g><path d="M123.2,239c-0.3,0-0.5-0.1-0.7-0.2c-0.4-0.2-0.7-0.6-0.8-1.1L103.9,164l0,0c-0.1-0.4,0-0.8,0.2-1.1        c0-0.1,0.1-0.1,0.1-0.1v0h0c0.1-0.1,0.1-0.2,0.2-0.2l48.3-49.6l-74.6-2.8c-0.9,0-1.6-0.8-1.6-1.7s0.8-1.7,1.7-1.6l78.3,3        c0.6,0,1.2,0.4,1.4,1c0.2,0.6,0.1,1.3-0.3,1.7l-49.4,50.7l86,44.5c0.6,0.3,0.9,0.9,0.9,1.5c0,0.6-0.4,1.2-1,1.4l-70.3,28.2        C123.6,238.9,123.4,239,123.2,239z M107.9,166.7l16.4,68.4l65.2-26.2L107.9,166.7z" fill="#99897A"/></g></g><g><g><path d="M174.1,287c-0.4,0-0.8-0.2-1.1-0.4l-50.9-48c-0.7-0.6-0.7-1.6-0.1-2.3c0.6-0.7,1.6-0.7,2.3-0.1        l49,46.2l20.3-72.8c0.2-0.9,1.1-1.4,2-1.1c0.9,0.2,1.4,1.1,1.1,2l-21,75.4c-0.2,0.5-0.6,1-1.1,1.1        C174.4,287,174.2,287,174.1,287z" fill="#99897A"/></g></g><g><g><path d="M233.8,113.9L233.8,113.9l-77.4-0.4c-0.9,0-1.6-0.7-1.6-1.6c0-0.9,0.7-1.6,1.6-1.6h0l77.4,0.4        c0.9,0,1.6,0.7,1.6,1.6S234.7,113.9,233.8,113.9z" fill="#99897A"/></g></g></g><g><g><g><path d="M316.2,186.4c-0.3,0-0.6-0.1-0.9-0.3l-31.6-21.1c-0.7-0.5-0.9-1.3-0.6-2.1l27.3-55.2        c0.3-0.7,1.1-1,1.8-0.9c0.7,0.1,1.3,0.8,1.3,1.5l4.2,76.3c0,0.6-0.3,1.2-0.8,1.5C316.8,186.3,316.5,186.4,316.2,186.4z         M286.8,163.2l27.7,18.5l-3.7-66.9L286.8,163.2z" fill="#99897A"/></g></g><g><g><path d="M267,239.1c-0.2,0-0.4,0-0.6-0.1l-70.3-28.2c-0.6-0.2-1-0.8-1-1.4c0-0.6,0.3-1.2,0.9-1.5l86-44.5        l-49.4-50.7c-0.4-0.5-0.6-1.1-0.3-1.7c0.2-0.6,0.8-1,1.4-1l78.3-3c0.9-0.1,1.7,0.7,1.7,1.6c0,0.9-0.7,1.6-1.6,1.7l-74.6,2.8        l48.3,49.6c0.1,0.1,0.1,0.1,0.2,0.2v0l0,0c0,0.1,0.1,0.1,0.1,0.2c0.2,0.3,0.2,0.7,0.2,1.1c0,0,0,0,0,0l-17.7,73.7        c-0.1,0.5-0.4,0.8-0.8,1.1C267.5,239,267.3,239.1,267,239.1z M200.6,209l65.2,26.2l16.4-68.4L200.6,209z" fill="#99897A"/></g></g><g><g><path d="M216.1,287.1c-0.1,0-0.3,0-0.4-0.1c-0.5-0.2-1-0.6-1.1-1.1l-21-75.4c-0.2-0.9,0.3-1.8,1.1-2        c0.9-0.2,1.8,0.3,2,1.1l20.3,72.8l49-46.2c0.7-0.6,1.7-0.6,2.3,0.1c0.6,0.7,0.6,1.7-0.1,2.3l-50.9,48        C216.9,286.9,216.5,287.1,216.1,287.1z" fill="#99897A"/></g></g></g></g><g><g><path d="M214.9,287.4h-40.4c-0.9,0-1.6-0.7-1.6-1.6c0-0.9,0.7-1.6,1.6-1.6h40.4c0.9,0,1.6,0.7,1.6,1.6      C216.5,286.7,215.8,287.4,214.9,287.4z" fill="#99897A"/></g></g></g></g></svg>